HIERARCHY
ROOT Hips
{
  OFFSET 0 0 0
  CHANNELS 6 Xposition Yposition Zposition Zrotation Yrotation Xrotation
  JOINT LeftThigh
  {
    OFFSET 8.409438 0 -5.917753
    CHANNELS 3 Zrotation Yrotation Xrotation
    JOINT LeftLeg
    {
      OFFSET 0 0 -42.358652
      CHANNELS 3 Zrotation Yrotation Xrotation
      JOINT LeftFoot
      {
        OFFSET 0 0 -39.357303
        CHANNELS 3 Zrotation Yrotation Xrotation
      }
    }
  }
  JOINT RightThigh
  {
    OFFSET -8.409438 0 -5.917753
    CHANNELS 3 Zrotation Yrotation Xrotation
    JOINT RightLeg
    {
      OFFSET 0 0 -42.358652
      CHANNELS 3 Zrotation Yrotation Xrotation
      JOINT RightFoot
      {
        OFFSET 0 0 -39.357303
        CHANNELS 3 Zrotation Yrotation Xrotation
      }
    }
  }
  JOINT SpineLow
  {
    OFFSET 0 0 4.719101
    CHANNELS 3 Zrotation Yrotation Xrotation
    JOINT SpineMid
    {
      OFFSET 0 0 12.899191
      CHANNELS 3 Zrotation Yrotation Xrotation
      JOINT Chest
      {
        OFFSET 0 0 12.899191
        CHANNELS 3 Zrotation Yrotation Xrotation
        JOINT LeftShoulder
        {
          OFFSET 7.550562 1.41573 9.438202
          CHANNELS 3 Zrotation Yrotation Xrotation
          JOINT LeftArm
          {
            OFFSET 9.155056 0 4.247191
            CHANNELS 3 Zrotation Yrotation Xrotation
            JOINT LeftForearm
            {
              OFFSET 0 0 25.771955
              CHANNELS 3 Zrotation Yrotation Xrotation
              JOINT LeftHand
              {
                OFFSET 0 0 25.197169
                CHANNELS 3 Zrotation Yrotation Xrotation
              }
            }
          }
        }
        JOINT RightShoulder
        {
          OFFSET -7.550562 1.41573 9.438202
          CHANNELS 3 Zrotation Yrotation Xrotation
          JOINT RightArm
          {
            OFFSET -9.155056 0 4.247191
            CHANNELS 3 Zrotation Yrotation Xrotation
            JOINT RightForearm
            {
              OFFSET 0 0 -25.771955
              CHANNELS 3 Zrotation Yrotation Xrotation
              JOINT RightHand
              {
                OFFSET 0 0 -25.197169
                CHANNELS 3 Zrotation Yrotation Xrotation
              }
            }
          }
        }
        JOINT Neck
        {
          OFFSET 0 0 15.101124
          CHANNELS 3 Zrotation Yrotation Xrotation
          JOINT Head
          {
            OFFSET 0 0 11.325843
            CHANNELS 3 Zrotation Yrotation Xrotation
            End Site
            {
              OFFSET 0 0 14.157303
            }
          }
        }
      }
    }
  }
}
MOTION
Frames: 10
Frame Time: 0.0
0.0  93.25843  0.0  -0.181492  20.850182  -85.056663  -7.834381  -12.63642  -7.998732  -4.500574  -4.090691  9.213964  5.908344  0.054933  3.537155  -27.612269  5.6959  -6.541761  -10.30552  5.362723  6.153343  0.035994  2.396729  0.132026  3.7424  -0.091209  -1.028587  10.231234  -0.089699  -2.817898  10.231234  -0.089699  -2.817898  -0.221273  27.953899  -0.799735  141.554968  26.036372  179.721474  -26.463696  3.631556  97.364911  68.798785  0.404212  13.799175  3.33778  1.166462  3.901323  -125.618877  72.369848  -159.842819  -61.534786  35.844507  -108.405088  71.138099  -8.941522  37.477609  -24.893694  4.887142  7.044586  -18.71819  3.38552  5.490707  
0.0  93.25843  0.0  -0.399576  18.747688  -84.936303  -6.97956  -12.637763  -7.640105  -3.81343  -4.368199  8.926594  6.07294  0.132729  3.592714  -27.569419  5.304671  -7.16312  -9.650819  5.337226  6.291172  0.392024  2.353343  0.141034  4.038936  -0.021972  -1.157174  11.038184  0.132989  -3.156554  11.038183  0.132989  -3.156554  0.833159  27.00329  0.101951  143.999267  24.712096  178.583308  -27.71956  5.512972  97.429542  68.328041  0.926065  14.229766  2.880663  2.056831  3.293461  -134.786665  69.507705  -169.433444  -64.73763  38.921658  -107.176127  71.095632  -12.587295  39.345407  -24.614262  4.792476  7.463383  -18.511695  3.300601  5.799009  
0.0  93.25843  0.0  -0.786782  16.416096  -84.92592  -5.994818  -12.898952  -7.27168  -3.138001  -4.459651  8.790169  6.043388  0.18843  3.436958  -27.1421  4.706468  -7.588659  -9.206389  5.381209  6.337548  0.715848  2.348672  0.142618  4.343617  -0.002298  -1.251372  11.869338  0.217936  -3.408253  11.869338  0.217936  -3.408253  2.209899  25.893724  0.856475  146.062852  23.280925  177.568554  -29.199991  7.980946  97.238362  67.265033  -0.178142  13.192299  2.520366  3.119109  2.854894  -141.185724  66.203358  -175.912245  -66.958515  41.085317  -105.54129  70.780195  -15.386102  40.007117  -24.158944  4.708391  7.751101  -18.172162  3.231394  6.007831  
0.0  93.25843  0.0  -1.093647  14.403491  -84.784902  -5.36144  -13.164053  -7.053201  -2.438647  -4.449555  8.825976  6.287639  0.312566  3.508998  -27.009054  4.139946  -8.128708  -8.581802  5.417214  6.481811  1.028869  2.322183  0.155839  4.587902  0.044895  -1.34167  12.533755  0.375982  -3.643708  12.533756  0.375982  -3.643708  3.303276  24.747635  1.217798  147.894708  21.800886  176.51396  -31.262395  11.477553  96.942767  64.214031  -0.979124  11.041523  1.954992  4.124595  2.554948  -144.560307  63.012044  -179.19586  -67.935465  42.202316  -103.724572  71.233579  -17.284044  39.975981  -23.797495  4.510945  7.928238  -17.900965  3.080533  6.130236  
0.0  93.25843  0.0  -1.535828  12.244471  -84.695385  -4.679577  -13.565147  -6.930536  -1.931054  -4.410205  8.890826  6.667857  0.431294  3.698794  -26.619213  3.482555  -8.566604  -7.976095  5.411587  6.648858  1.298834  2.294846  0.162143  4.881225  0.048699  -1.44048  13.334147  0.422262  -3.90924  13.334147  0.422262  -3.90924  3.923407  23.818791  1.693947  149.562565  20.250504  175.808721  -34.042392  15.982633  96.636978  60.824482  -3.340486  9.229969  1.300219  5.053589  2.500341  -146.049093  60.147079  179.737693  -68.122719  42.824505  -102.252119  72.661386  -19.239244  39.876404  -23.482012  4.407699  8.108728  -17.664969  2.999976  6.25928  
0.0  93.25843  0.0  -1.975489  10.272445  -84.580854  -3.943824  -14.004681  -6.779851  -1.348693  -4.314241  9.11991  6.870492  0.590213  3.769898  -26.268828  2.868936  -8.940263  -7.363496  5.406103  6.813001  1.570248  2.264361  0.184159  5.144277  0.062634  -1.538126  14.051066  0.496271  -4.169269  14.051065  0.496271  -4.169268  4.388712  22.98077  2.340485  150.874821  18.625328  175.508253  -37.015147  21.404054  96.512336  57.904955  -5.609119  7.95619  0.59587  5.747737  2.595547  -145.847725  57.487515  -179.515618  -67.950537  43.567306  -101.246294  74.226174  -21.373773  39.58922  -23.208749  4.277236  8.286907  -17.46026  2.898691  6.38603  
0.0  93.25843  0.0  -2.315418  8.306375  -84.624056  -2.895822  -14.343764  -6.350193  -1.024103  -4.153808  9.266475  7.033631  0.702401  3.788545  -25.796747  2.398816  -9.125722  -6.862609  5.314259  6.968139  1.834729  2.264923  0.208187  5.410959  0.074098  -1.560487  14.778737  0.549084  -4.224497  14.778736  0.549084  -4.224497  5.875968  21.898549  3.204182  150.698013  16.556237  175.68962  -39.539234  26.544231  96.342048  54.66845  -8.118602  6.235196  -0.214535  6.349904  2.743478  -144.2832  54.937549  -177.608851  -67.550977  44.969879  -100.624541  75.058011  -22.974988  38.98132  -22.904884  4.160631  8.357774  -17.231814  2.812418  6.432576  
0.0  93.25843  0.0  -2.380422  6.451226  -84.715054  -2.386135  -14.51887  -6.071776  -0.389297  -3.963089  9.687673  7.22665  0.833041  3.859621  -25.347813  2.244522  -9.307741  -6.342938  5.310785  7.125355  1.969301  2.254667  0.210602  5.594508  0.090971  -1.551276  15.279318  0.604413  -4.193361  15.279318  0.604413  -4.193361  6.300975  21.615014  3.670449  151.528587  15.022577  176.094972  -41.811369  30.477107  95.91009  54.454257  -9.405102  4.325875  -0.657209  6.70903  2.771273  -142.350806  52.685425  -175.790387  -66.666509  46.430017  -100.289813  75.282339  -24.102919  38.276823  -22.457213  4.116719  8.343789  -16.895585  2.785897  6.417027  
0.0  93.25843  0.0  -2.435066  4.466996  -84.93542  -1.577062  -14.687102  -5.719056  0.304891  -3.72368  10.274564  7.283512  0.933198  3.839877  -24.696233  2.119471  -9.341664  -5.967518  5.332446  7.252722  2.192686  2.276445  0.222177  5.759866  0.079254  -1.526  15.732142  0.577008  -4.125317  15.732143  0.577008  -4.125317  6.928024  21.334716  3.855644  152.129  13.441671  176.439247  -42.471954  31.892221  96.101307  55.81366  -9.203135  2.317462  -0.461492  6.732615  3.019441  -141.016094  50.49684  -174.442151  -65.366005  47.274349  -100.003423  75.604172  -24.792044  37.659156  -21.666703  4.274902  8.408138  -16.304955  2.912996  6.464704  
0.0  93.25843  0.0  -2.530597  2.849957  -85.056072  -0.839696  -14.898982  -5.529558  0.627941  -3.525535  10.707612  7.42677  1.014111  3.896669  -24.330042  1.950009  -9.393748  -5.628493  5.375514  7.363285  2.35548  2.272434  0.205053  5.81906  0.044292  -1.539943  15.895818  0.489115  -4.170777  15.895818  0.489116  -4.170777  7.657592  21.135665  4.05654  152.72642  12.310174  176.609757  -41.430664  30.379334  97.003359  57.552121  -8.688708  0.684023  -0.156163  6.7791  3.392147  -140.304101  48.632818  -173.960063  -64.196512  47.600077  -99.57993  76.298469  -25.101278  37.370971  -20.961281  4.472152  8.407137  -15.778044  3.070683  6.464907  
